<?xml version="1.0" encoding="UTF-8" standalone="no"?>
<!DOCTYPE svg PUBLIC "-//W3C//DTD SVG 1.1//EN"
 "http://www.w3.org/Graphics/SVG/1.1/DTD/svg11.dtd">
<!-- Generated by graphviz version 2.44.0 (0)
 -->
<!-- Pages: 1 -->
<svg width="696pt" height="124pt"
 viewBox="0.00 0.00 695.68 123.70" xmlns="http://www.w3.org/2000/svg" xmlns:xlink="http://www.w3.org/1999/xlink">
<g id="graph0" class="graph" transform="scale(1 1) rotate(0) translate(4 119.7)">
<polygon fill="white" stroke="transparent" points="-4,4 -4,-119.7 691.68,-119.7 691.68,4 -4,4"/>
<!-- 3668643373788600465 -->
<g id="node1" class="node">
<title>3668643373788600465</title>
<ellipse fill="none" stroke="black" cx="561.93" cy="-77.7" rx="36" ry="36"/>
<text text-anchor="middle" x="561.93" y="-74" font-family="helvetica" font-size="14.00">gather</text>
</g>
<!-- 1028093740464834593 -->
<g id="node2" class="node">
<title>1028093740464834593</title>
<polygon fill="none" stroke="black" points="687.68,-95.7 633.68,-95.7 633.68,-59.7 687.68,-59.7 687.68,-95.7"/>
</g>
<!-- 3668643373788600465&#45;&gt;1028093740464834593 -->
<g id="edge1" class="edge">
<title>3668643373788600465&#45;&gt;1028093740464834593</title>
<path fill="none" stroke="black" d="M597.86,-77.7C606.16,-77.7 615.03,-77.7 623.38,-77.7"/>
<polygon fill="black" stroke="black" points="623.61,-81.2 633.61,-77.7 623.61,-74.2 623.61,-81.2"/>
</g>
<!-- 3771379299362427888 -->
<g id="node3" class="node">
<title>3771379299362427888</title>
<polygon fill="#8888cc" stroke="black" points="490.19,-46.7 436.19,-46.7 436.19,-10.7 490.19,-10.7 490.19,-46.7"/>
</g>
<!-- 3771379299362427888&#45;&gt;3668643373788600465 -->
<g id="edge2" class="edge">
<title>3771379299362427888&#45;&gt;3668643373788600465</title>
<path fill="none" stroke="black" d="M490.37,-41.96C499.62,-46.65 510.26,-52.03 520.42,-57.18"/>
<polygon fill="black" stroke="black" points="519.07,-60.42 529.57,-61.81 522.23,-54.17 519.07,-60.42"/>
</g>
<!-- 8906811388877421331 -->
<g id="node4" class="node">
<title>8906811388877421331</title>
<polygon fill="#8888cc" stroke="black" points="139.4,-106.7 85.4,-106.7 85.4,-70.7 139.4,-70.7 139.4,-106.7"/>
</g>
<!-- 8906811388877421331&#45;&gt;3668643373788600465 -->
<g id="edge3" class="edge">
<title>8906811388877421331&#45;&gt;3668643373788600465</title>
<path fill="none" stroke="black" d="M139.64,-95.37C173.43,-103.37 234.08,-115.7 286.79,-115.7 286.79,-115.7 286.79,-115.7 376.49,-115.7 425.65,-115.7 480.69,-102.59 517.75,-91.77"/>
<polygon fill="black" stroke="black" points="519.12,-95.01 527.7,-88.79 517.12,-88.3 519.12,-95.01"/>
</g>
<!-- 6041053131169810056 -->
<g id="node7" class="node">
<title>6041053131169810056</title>
<ellipse fill="none" stroke="black" cx="200.09" cy="-62.7" rx="24.9" ry="24.9"/>
<text text-anchor="middle" x="200.09" y="-59" font-family="helvetica" font-size="14.00">fine</text>
</g>
<!-- 8906811388877421331&#45;&gt;6041053131169810056 -->
<g id="edge7" class="edge">
<title>8906811388877421331&#45;&gt;6041053131169810056</title>
<path fill="none" stroke="black" d="M139.57,-80.76C148.09,-78.17 157.64,-75.28 166.55,-72.57"/>
<polygon fill="black" stroke="black" points="167.71,-75.88 176.27,-69.62 165.68,-69.18 167.71,-75.88"/>
</g>
<!-- &#45;7563934534922989052 -->
<g id="node5" class="node">
<title>&#45;7563934534922989052</title>
<polygon fill="#8888cc" stroke="black" points="314.79,-80.7 260.79,-80.7 260.79,-44.7 314.79,-44.7 314.79,-80.7"/>
</g>
<!-- &#45;7563934534922989052&#45;&gt;3668643373788600465 -->
<g id="edge4" class="edge">
<title>&#45;7563934534922989052&#45;&gt;3668643373788600465</title>
<path fill="none" stroke="black" d="M314.89,-64.14C361.22,-66.69 458.39,-72.05 515.78,-75.21"/>
<polygon fill="black" stroke="black" points="515.84,-78.72 526.01,-75.77 516.22,-71.73 515.84,-78.72"/>
</g>
<!-- &#45;2174197138922852511 -->
<g id="node8" class="node">
<title>&#45;2174197138922852511</title>
<ellipse fill="none" stroke="black" cx="375.49" cy="-24.7" rx="24.9" ry="24.9"/>
<text text-anchor="middle" x="375.49" y="-21" font-family="helvetica" font-size="14.00">fine</text>
</g>
<!-- &#45;7563934534922989052&#45;&gt;&#45;2174197138922852511 -->
<g id="edge9" class="edge">
<title>&#45;7563934534922989052&#45;&gt;&#45;2174197138922852511</title>
<path fill="none" stroke="black" d="M314.97,-51.09C323.88,-47.14 333.94,-42.68 343.21,-38.57"/>
<polygon fill="black" stroke="black" points="344.79,-41.7 352.51,-34.44 341.95,-35.3 344.79,-41.7"/>
</g>
<!-- &#45;8914011791078346546 -->
<g id="node6" class="node">
<title>&#45;8914011791078346546</title>
<ellipse fill="none" stroke="black" cx="24.7" cy="-88.7" rx="24.9" ry="24.9"/>
<text text-anchor="middle" x="24.7" y="-85" font-family="helvetica" font-size="14.00">fine</text>
</g>
<!-- &#45;8914011791078346546&#45;&gt;8906811388877421331 -->
<g id="edge5" class="edge">
<title>&#45;8914011791078346546&#45;&gt;8906811388877421331</title>
<path fill="none" stroke="black" d="M49.57,-88.7C57.46,-88.7 66.42,-88.7 75.02,-88.7"/>
<polygon fill="black" stroke="black" points="75.25,-92.2 85.25,-88.7 75.25,-85.2 75.25,-92.2"/>
</g>
<!-- 6041053131169810056&#45;&gt;&#45;7563934534922989052 -->
<g id="edge6" class="edge">
<title>6041053131169810056&#45;&gt;&#45;7563934534922989052</title>
<path fill="none" stroke="black" d="M224.97,-62.7C232.85,-62.7 241.81,-62.7 250.42,-62.7"/>
<polygon fill="black" stroke="black" points="250.64,-66.2 260.64,-62.7 250.64,-59.2 250.64,-66.2"/>
</g>
<!-- &#45;2174197138922852511&#45;&gt;3771379299362427888 -->
<g id="edge8" class="edge">
<title>&#45;2174197138922852511&#45;&gt;3771379299362427888</title>
<path fill="none" stroke="black" d="M400.36,-25.81C408.25,-26.18 417.21,-26.6 425.81,-27"/>
<polygon fill="black" stroke="black" points="425.89,-30.51 436.04,-27.48 426.21,-23.51 425.89,-30.51"/>
</g>
</g>
</svg>
