<?xml version="1.0" encoding="UTF-8" standalone="no"?>
<!DOCTYPE svg PUBLIC "-//W3C//DTD SVG 1.1//EN"
 "http://www.w3.org/Graphics/SVG/1.1/DTD/svg11.dtd">
<!-- Generated by graphviz version 2.44.0 (0)
 -->
<!-- Pages: 1 -->
<svg width="1901pt" height="416pt"
 viewBox="0.00 0.00 1900.85 416.09" xmlns="http://www.w3.org/2000/svg" xmlns:xlink="http://www.w3.org/1999/xlink">
<g id="graph0" class="graph" transform="scale(1 1) rotate(0) translate(4 412.09)">
<polygon fill="white" stroke="transparent" points="-4,4 -4,-412.09 1896.85,-412.09 1896.85,4 -4,4"/>
<!-- &#45;2989492133336508692 -->
<g id="node1" class="node">
<title>&#45;2989492133336508692</title>
<ellipse fill="none" stroke="black" cx="1767.1" cy="-262.05" rx="36" ry="36"/>
<text text-anchor="middle" x="1767.1" y="-258.35" font-family="helvetica" font-size="14.00">gather</text>
</g>
<!-- 3906361071703566220 -->
<g id="node2" class="node">
<title>3906361071703566220</title>
<polygon fill="none" stroke="black" points="1892.85,-280.05 1838.85,-280.05 1838.85,-244.05 1892.85,-244.05 1892.85,-280.05"/>
</g>
<!-- &#45;2989492133336508692&#45;&gt;3906361071703566220 -->
<g id="edge1" class="edge">
<title>&#45;2989492133336508692&#45;&gt;3906361071703566220</title>
<path fill="none" stroke="black" d="M1803.03,-262.05C1811.32,-262.05 1820.19,-262.05 1828.55,-262.05"/>
<polygon fill="black" stroke="black" points="1828.78,-265.55 1838.78,-262.05 1828.78,-258.55 1828.78,-265.55"/>
</g>
<!-- 1920323832606519965 -->
<g id="node3" class="node">
<title>1920323832606519965</title>
<polygon fill="none" stroke="black" points="1139.86,-215.05 1085.86,-215.05 1085.86,-179.05 1139.86,-179.05 1139.86,-215.05"/>
</g>
<!-- 1920323832606519965&#45;&gt;&#45;2989492133336508692 -->
<g id="edge2" class="edge">
<title>1920323832606519965&#45;&gt;&#45;2989492133336508692</title>
<path fill="none" stroke="black" d="M1132.95,-215.17C1144.49,-225.05 1159.99,-236.55 1175.86,-243.05 1232.38,-266.18 1250.88,-262.05 1311.96,-262.05 1311.96,-262.05 1311.96,-262.05 1581.65,-262.05 1629.22,-262.05 1683.68,-262.05 1721.02,-262.05"/>
<polygon fill="black" stroke="black" points="1721.08,-265.55 1731.08,-262.05 1721.08,-258.55 1721.08,-265.55"/>
</g>
<!-- &#45;848112470969801991 -->
<g id="node32" class="node">
<title>&#45;848112470969801991</title>
<ellipse fill="none" stroke="black" cx="1212.91" cy="-197.05" rx="37.09" ry="37.09"/>
<text text-anchor="middle" x="1212.91" y="-193.35" font-family="helvetica" font-size="14.00">coarse</text>
</g>
<!-- 1920323832606519965&#45;&gt;&#45;848112470969801991 -->
<g id="edge34" class="edge">
<title>1920323832606519965&#45;&gt;&#45;848112470969801991</title>
<path fill="none" stroke="black" d="M1139.88,-197.05C1147.79,-197.05 1156.73,-197.05 1165.56,-197.05"/>
<polygon fill="black" stroke="black" points="1165.8,-200.55 1175.8,-197.05 1165.8,-193.55 1165.8,-200.55"/>
</g>
<!-- &#45;5715812769153440330 -->
<g id="node4" class="node">
<title>&#45;5715812769153440330</title>
<polygon fill="none" stroke="black" points="1695.35,-225.05 1641.35,-225.05 1641.35,-189.05 1695.35,-189.05 1695.35,-225.05"/>
</g>
<!-- &#45;5715812769153440330&#45;&gt;&#45;2989492133336508692 -->
<g id="edge3" class="edge">
<title>&#45;5715812769153440330&#45;&gt;&#45;2989492133336508692</title>
<path fill="none" stroke="black" d="M1695.53,-221.93C1705.05,-227.34 1716.04,-233.59 1726.47,-239.52"/>
<polygon fill="black" stroke="black" points="1725.01,-242.72 1735.44,-244.61 1728.47,-236.63 1725.01,-242.72"/>
</g>
<!-- &#45;7445318889011203409 -->
<g id="node5" class="node">
<title>&#45;7445318889011203409</title>
<polygon fill="none" stroke="black" points="564.28,-315.05 510.28,-315.05 510.28,-279.05 564.28,-279.05 564.28,-315.05"/>
</g>
<!-- &#45;7445318889011203409&#45;&gt;&#45;2989492133336508692 -->
<g id="edge4" class="edge">
<title>&#45;7445318889011203409&#45;&gt;&#45;2989492133336508692</title>
<path fill="none" stroke="black" d="M564.33,-304.21C601.98,-313.91 673.97,-330.05 736.37,-330.05 736.37,-330.05 736.37,-330.05 1581.65,-330.05 1634.67,-330.05 1691.26,-305.01 1727.56,-285.32"/>
<polygon fill="black" stroke="black" points="1729.29,-288.36 1736.34,-280.45 1725.9,-282.24 1729.29,-288.36"/>
</g>
<!-- &#45;1842733847471267869 -->
<g id="node21" class="node">
<title>&#45;1842733847471267869</title>
<ellipse fill="none" stroke="black" cx="637.33" cy="-265.05" rx="37.09" ry="37.09"/>
<text text-anchor="middle" x="637.33" y="-261.35" font-family="helvetica" font-size="14.00">coarse</text>
</g>
<!-- &#45;7445318889011203409&#45;&gt;&#45;1842733847471267869 -->
<g id="edge21" class="edge">
<title>&#45;7445318889011203409&#45;&gt;&#45;1842733847471267869</title>
<path fill="none" stroke="black" d="M564.3,-288.56C572.8,-285.78 582.5,-282.61 591.97,-279.52"/>
<polygon fill="black" stroke="black" points="593.27,-282.78 601.69,-276.35 591.1,-276.13 593.27,-282.78"/>
</g>
<!-- &#45;4888782825372438556 -->
<g id="node6" class="node">
<title>&#45;4888782825372438556</title>
<ellipse fill="none" stroke="black" cx="437.23" cy="-297.05" rx="24.9" ry="24.9"/>
<text text-anchor="middle" x="437.23" y="-293.35" font-family="helvetica" font-size="14.00">sub</text>
</g>
<!-- &#45;4888782825372438556&#45;&gt;&#45;7445318889011203409 -->
<g id="edge5" class="edge">
<title>&#45;4888782825372438556&#45;&gt;&#45;7445318889011203409</title>
<path fill="none" stroke="black" d="M461.97,-297.05C473.3,-297.05 487.12,-297.05 499.75,-297.05"/>
<polygon fill="black" stroke="black" points="500.01,-300.55 510.01,-297.05 500.01,-293.55 500.01,-300.55"/>
</g>
<!-- &#45;7257419115124602655 -->
<g id="node7" class="node">
<title>&#45;7257419115124602655</title>
<polygon fill="none" stroke="black" points="364.19,-345.05 310.19,-345.05 310.19,-309.05 364.19,-309.05 364.19,-345.05"/>
</g>
<!-- &#45;7257419115124602655&#45;&gt;&#45;4888782825372438556 -->
<g id="edge6" class="edge">
<title>&#45;7257419115124602655&#45;&gt;&#45;4888782825372438556</title>
<path fill="none" stroke="black" d="M364.2,-319.09C376.29,-315.39 390.79,-310.95 403.6,-307.03"/>
<polygon fill="black" stroke="black" points="404.9,-310.29 413.44,-304.02 402.85,-303.6 404.9,-310.29"/>
</g>
<!-- 5636367771652357981 -->
<g id="node8" class="node">
<title>5636367771652357981</title>
<polygon fill="none" stroke="black" points="364.19,-285.05 310.19,-285.05 310.19,-249.05 364.19,-249.05 364.19,-285.05"/>
</g>
<!-- 5636367771652357981&#45;&gt;&#45;4888782825372438556 -->
<g id="edge7" class="edge">
<title>5636367771652357981&#45;&gt;&#45;4888782825372438556</title>
<path fill="none" stroke="black" d="M364.2,-275.01C376.29,-278.71 390.79,-283.14 403.6,-287.06"/>
<polygon fill="black" stroke="black" points="402.85,-290.49 413.44,-290.07 404.9,-283.8 402.85,-290.49"/>
</g>
<!-- 1498453957448887211 -->
<g id="node9" class="node">
<title>1498453957448887211</title>
<ellipse fill="none" stroke="black" cx="237.14" cy="-334.05" rx="25.2" ry="25.2"/>
<text text-anchor="middle" x="237.14" y="-330.35" font-family="helvetica" font-size="14.00">add</text>
</g>
<!-- 1498453957448887211&#45;&gt;&#45;7257419115124602655 -->
<g id="edge8" class="edge">
<title>1498453957448887211&#45;&gt;&#45;7257419115124602655</title>
<path fill="none" stroke="black" d="M262.63,-332.3C273.88,-331.49 287.46,-330.53 299.88,-329.64"/>
<polygon fill="black" stroke="black" points="300.23,-333.12 309.95,-328.92 299.73,-326.14 300.23,-333.12"/>
</g>
<!-- &#45;9204847616969938470 -->
<g id="node10" class="node">
<title>&#45;9204847616969938470</title>
<polygon fill="none" stroke="black" points="164.09,-382.05 110.09,-382.05 110.09,-346.05 164.09,-346.05 164.09,-382.05"/>
</g>
<!-- &#45;9204847616969938470&#45;&gt;1498453957448887211 -->
<g id="edge9" class="edge">
<title>&#45;9204847616969938470&#45;&gt;1498453957448887211</title>
<path fill="none" stroke="black" d="M164.11,-356.09C176.02,-352.44 190.27,-348.08 202.94,-344.21"/>
<polygon fill="black" stroke="black" points="204.15,-347.5 212.69,-341.22 202.1,-340.8 204.15,-347.5"/>
</g>
<!-- &#45;2224564368667311982 -->
<g id="node11" class="node">
<title>&#45;2224564368667311982</title>
<polygon fill="#8888cc" stroke="black" points="164.09,-322.05 110.09,-322.05 110.09,-286.05 164.09,-286.05 164.09,-322.05"/>
</g>
<!-- &#45;2224564368667311982&#45;&gt;1498453957448887211 -->
<g id="edge10" class="edge">
<title>&#45;2224564368667311982&#45;&gt;1498453957448887211</title>
<path fill="none" stroke="black" d="M164.11,-312.01C176.02,-315.65 190.27,-320.01 202.94,-323.89"/>
<polygon fill="black" stroke="black" points="202.1,-327.29 212.69,-326.87 204.15,-320.6 202.1,-327.29"/>
</g>
<!-- &#45;1622414389280282283 -->
<g id="node12" class="node">
<title>&#45;1622414389280282283</title>
<ellipse fill="none" stroke="black" cx="37.05" cy="-371.05" rx="37.09" ry="37.09"/>
<text text-anchor="middle" x="37.05" y="-367.35" font-family="helvetica" font-size="14.00">coarse</text>
</g>
<!-- &#45;1622414389280282283&#45;&gt;&#45;9204847616969938470 -->
<g id="edge11" class="edge">
<title>&#45;1622414389280282283&#45;&gt;&#45;9204847616969938470</title>
<path fill="none" stroke="black" d="M74.28,-368.46C82.56,-367.87 91.37,-367.24 99.66,-366.65"/>
<polygon fill="black" stroke="black" points="100.09,-370.13 109.81,-365.92 99.59,-363.14 100.09,-370.13"/>
</g>
<!-- 2315441794400624459 -->
<g id="node13" class="node">
<title>2315441794400624459</title>
<ellipse fill="none" stroke="black" cx="37.05" cy="-291.05" rx="24.9" ry="24.9"/>
<text text-anchor="middle" x="37.05" y="-287.35" font-family="helvetica" font-size="14.00">fine</text>
</g>
<!-- 2315441794400624459&#45;&gt;&#45;2224564368667311982 -->
<g id="edge12" class="edge">
<title>2315441794400624459&#45;&gt;&#45;2224564368667311982</title>
<path fill="none" stroke="black" d="M61.78,-294.19C73.12,-295.7 86.93,-297.53 99.57,-299.2"/>
<polygon fill="black" stroke="black" points="99.45,-302.72 109.82,-300.56 100.37,-295.78 99.45,-302.72"/>
</g>
<!-- &#45;6722210675084863007 -->
<g id="node14" class="node">
<title>&#45;6722210675084863007</title>
<ellipse fill="none" stroke="black" cx="237.14" cy="-254.05" rx="37.09" ry="37.09"/>
<text text-anchor="middle" x="237.14" y="-250.35" font-family="helvetica" font-size="14.00">coarse</text>
</g>
<!-- &#45;6722210675084863007&#45;&gt;5636367771652357981 -->
<g id="edge13" class="edge">
<title>&#45;6722210675084863007&#45;&gt;5636367771652357981</title>
<path fill="none" stroke="black" d="M274.09,-258.81C282.56,-259.94 291.59,-261.13 300.07,-262.26"/>
<polygon fill="black" stroke="black" points="299.69,-265.74 310.06,-263.58 300.61,-258.8 299.69,-265.74"/>
</g>
<!-- 8717500870174477475 -->
<g id="node15" class="node">
<title>8717500870174477475</title>
<ellipse fill="none" stroke="black" cx="1025.16" cy="-195.05" rx="24.9" ry="24.9"/>
<text text-anchor="middle" x="1025.16" y="-191.35" font-family="helvetica" font-size="14.00">sub</text>
</g>
<!-- 8717500870174477475&#45;&gt;1920323832606519965 -->
<g id="edge14" class="edge">
<title>8717500870174477475&#45;&gt;1920323832606519965</title>
<path fill="none" stroke="black" d="M1050.04,-195.6C1057.92,-195.79 1066.89,-196 1075.49,-196.2"/>
<polygon fill="black" stroke="black" points="1075.64,-199.7 1085.71,-196.44 1075.8,-192.7 1075.64,-199.7"/>
</g>
<!-- &#45;690603240106807176 -->
<g id="node16" class="node">
<title>&#45;690603240106807176</title>
<polygon fill="none" stroke="black" points="964.47,-157.05 910.47,-157.05 910.47,-121.05 964.47,-121.05 964.47,-157.05"/>
</g>
<!-- &#45;690603240106807176&#45;&gt;8717500870174477475 -->
<g id="edge15" class="edge">
<title>&#45;690603240106807176&#45;&gt;8717500870174477475</title>
<path fill="none" stroke="black" d="M964.64,-156.15C974.47,-162.57 985.67,-169.89 995.69,-176.44"/>
<polygon fill="black" stroke="black" points="993.84,-179.41 1004.13,-181.95 997.67,-173.55 993.84,-179.41"/>
</g>
<!-- &#45;8351811573751016795 -->
<g id="node17" class="node">
<title>&#45;8351811573751016795</title>
<polygon fill="none" stroke="black" points="964.47,-213.05 910.47,-213.05 910.47,-177.05 964.47,-177.05 964.47,-213.05"/>
</g>
<!-- &#45;8351811573751016795&#45;&gt;8717500870174477475 -->
<g id="edge16" class="edge">
<title>&#45;8351811573751016795&#45;&gt;8717500870174477475</title>
<path fill="none" stroke="black" d="M964.64,-195.05C972.69,-195.05 981.67,-195.05 990.17,-195.05"/>
<polygon fill="black" stroke="black" points="990.19,-198.55 1000.19,-195.05 990.19,-191.55 990.19,-198.55"/>
</g>
<!-- &#45;2674118432133169967 -->
<g id="node18" class="node">
<title>&#45;2674118432133169967</title>
<ellipse fill="none" stroke="black" cx="837.42" cy="-195.05" rx="25.2" ry="25.2"/>
<text text-anchor="middle" x="837.42" y="-191.35" font-family="helvetica" font-size="14.00">add</text>
</g>
<!-- &#45;2674118432133169967&#45;&gt;&#45;8351811573751016795 -->
<g id="edge17" class="edge">
<title>&#45;2674118432133169967&#45;&gt;&#45;8351811573751016795</title>
<path fill="none" stroke="black" d="M862.91,-195.05C874.16,-195.05 887.74,-195.05 900.16,-195.05"/>
<polygon fill="black" stroke="black" points="900.23,-198.55 910.23,-195.05 900.23,-191.55 900.23,-198.55"/>
</g>
<!-- 214083688689700265 -->
<g id="node19" class="node">
<title>214083688689700265</title>
<polygon fill="none" stroke="black" points="764.37,-270.05 710.37,-270.05 710.37,-234.05 764.37,-234.05 764.37,-270.05"/>
</g>
<!-- 214083688689700265&#45;&gt;&#45;2674118432133169967 -->
<g id="edge18" class="edge">
<title>214083688689700265&#45;&gt;&#45;2674118432133169967</title>
<path fill="none" stroke="black" d="M764.39,-236.92C777.3,-229.42 792.96,-220.32 806.37,-212.52"/>
<polygon fill="black" stroke="black" points="808.35,-215.41 815.24,-207.36 804.84,-209.36 808.35,-215.41"/>
</g>
<!-- &#45;9105462258776416773 -->
<g id="node20" class="node">
<title>&#45;9105462258776416773</title>
<polygon fill="#8888cc" stroke="black" points="764.37,-206.05 710.37,-206.05 710.37,-170.05 764.37,-170.05 764.37,-206.05"/>
</g>
<!-- &#45;9105462258776416773&#45;&gt;&#45;2674118432133169967 -->
<g id="edge19" class="edge">
<title>&#45;9105462258776416773&#45;&gt;&#45;2674118432133169967</title>
<path fill="none" stroke="black" d="M764.39,-189.9C775.91,-190.73 789.63,-191.71 801.99,-192.59"/>
<polygon fill="black" stroke="black" points="801.75,-196.08 811.97,-193.3 802.24,-189.1 801.75,-196.08"/>
</g>
<!-- &#45;1842733847471267869&#45;&gt;214083688689700265 -->
<g id="edge20" class="edge">
<title>&#45;1842733847471267869&#45;&gt;214083688689700265</title>
<path fill="none" stroke="black" d="M674.28,-260.28C682.75,-259.16 691.78,-257.96 700.26,-256.84"/>
<polygon fill="black" stroke="black" points="700.8,-260.29 710.25,-255.51 699.88,-253.36 700.8,-260.29"/>
</g>
<!-- &#45;6429444441174765827 -->
<g id="node22" class="node">
<title>&#45;6429444441174765827</title>
<ellipse fill="none" stroke="black" cx="437.23" cy="-105.05" rx="37.09" ry="37.09"/>
<text text-anchor="middle" x="437.23" y="-101.35" font-family="helvetica" font-size="14.00">coarse</text>
</g>
<!-- &#45;6393687485096307220 -->
<g id="node23" class="node">
<title>&#45;6393687485096307220</title>
<polygon fill="none" stroke="black" points="564.28,-123.05 510.28,-123.05 510.28,-87.05 564.28,-87.05 564.28,-123.05"/>
</g>
<!-- &#45;6429444441174765827&#45;&gt;&#45;6393687485096307220 -->
<g id="edge22" class="edge">
<title>&#45;6429444441174765827&#45;&gt;&#45;6393687485096307220</title>
<path fill="none" stroke="black" d="M474.46,-105.05C482.75,-105.05 491.56,-105.05 499.85,-105.05"/>
<polygon fill="black" stroke="black" points="500,-108.55 510,-105.05 500,-101.55 500,-108.55"/>
</g>
<!-- &#45;5172528043132497865 -->
<g id="node24" class="node">
<title>&#45;5172528043132497865</title>
<ellipse fill="none" stroke="black" cx="637.33" cy="-185.05" rx="24.9" ry="24.9"/>
<text text-anchor="middle" x="637.33" y="-181.35" font-family="helvetica" font-size="14.00">fine</text>
</g>
<!-- &#45;6393687485096307220&#45;&gt;&#45;5172528043132497865 -->
<g id="edge24" class="edge">
<title>&#45;6393687485096307220&#45;&gt;&#45;5172528043132497865</title>
<path fill="none" stroke="black" d="M560.53,-123.2C575.12,-135.1 594.27,-150.73 609.67,-163.29"/>
<polygon fill="black" stroke="black" points="607.83,-166.31 617.79,-169.92 612.25,-160.88 607.83,-166.31"/>
</g>
<!-- &#45;4984854620312069880 -->
<g id="node25" class="node">
<title>&#45;4984854620312069880</title>
<ellipse fill="none" stroke="black" cx="637.33" cy="-105.05" rx="37.09" ry="37.09"/>
<text text-anchor="middle" x="637.33" y="-101.35" font-family="helvetica" font-size="14.00">coarse</text>
</g>
<!-- &#45;6393687485096307220&#45;&gt;&#45;4984854620312069880 -->
<g id="edge26" class="edge">
<title>&#45;6393687485096307220&#45;&gt;&#45;4984854620312069880</title>
<path fill="none" stroke="black" d="M564.3,-105.05C572.21,-105.05 581.15,-105.05 589.98,-105.05"/>
<polygon fill="black" stroke="black" points="590.22,-108.55 600.22,-105.05 590.22,-101.55 590.22,-108.55"/>
</g>
<!-- &#45;3847098365001006512 -->
<g id="node33" class="node">
<title>&#45;3847098365001006512</title>
<ellipse fill="none" stroke="black" cx="837.42" cy="-40.05" rx="37.09" ry="37.09"/>
<text text-anchor="middle" x="837.42" y="-36.35" font-family="helvetica" font-size="14.00">coarse</text>
</g>
<!-- &#45;6393687485096307220&#45;&gt;&#45;3847098365001006512 -->
<g id="edge36" class="edge">
<title>&#45;6393687485096307220&#45;&gt;&#45;3847098365001006512</title>
<path fill="none" stroke="black" d="M556.7,-87.04C568.24,-76.94 583.97,-65.17 600.28,-59.05 662.87,-35.54 741.2,-34.22 790.03,-36.4"/>
<polygon fill="black" stroke="black" points="790.12,-39.91 800.29,-36.92 790.48,-32.92 790.12,-39.91"/>
</g>
<!-- &#45;5172528043132497865&#45;&gt;&#45;9105462258776416773 -->
<g id="edge23" class="edge">
<title>&#45;5172528043132497865&#45;&gt;&#45;9105462258776416773</title>
<path fill="none" stroke="black" d="M662.06,-185.77C673.4,-186.12 687.21,-186.54 699.85,-186.93"/>
<polygon fill="black" stroke="black" points="700,-190.44 710.1,-187.24 700.21,-183.44 700,-190.44"/>
</g>
<!-- &#45;4984854620312069880&#45;&gt;&#45;690603240106807176 -->
<g id="edge25" class="edge">
<title>&#45;4984854620312069880&#45;&gt;&#45;690603240106807176</title>
<path fill="none" stroke="black" d="M674.29,-109.15C731.59,-115.68 842.98,-128.39 900.36,-134.93"/>
<polygon fill="black" stroke="black" points="900.09,-138.42 910.43,-136.08 900.89,-131.47 900.09,-138.42"/>
</g>
<!-- &#45;4722432698065779465 -->
<g id="node26" class="node">
<title>&#45;4722432698065779465</title>
<ellipse fill="none" stroke="black" cx="1580.65" cy="-166.05" rx="24.9" ry="24.9"/>
<text text-anchor="middle" x="1580.65" y="-162.35" font-family="helvetica" font-size="14.00">sub</text>
</g>
<!-- &#45;4722432698065779465&#45;&gt;&#45;5715812769153440330 -->
<g id="edge27" class="edge">
<title>&#45;4722432698065779465&#45;&gt;&#45;5715812769153440330</title>
<path fill="none" stroke="black" d="M1603.28,-176.39C1612,-180.56 1622.28,-185.48 1632.03,-190.15"/>
<polygon fill="black" stroke="black" points="1630.61,-193.35 1641.14,-194.51 1633.63,-187.04 1630.61,-193.35"/>
</g>
<!-- 874469918790253491 -->
<g id="node27" class="node">
<title>874469918790253491</title>
<polygon fill="none" stroke="black" points="1519.96,-184.05 1465.96,-184.05 1465.96,-148.05 1519.96,-148.05 1519.96,-184.05"/>
</g>
<!-- 874469918790253491&#45;&gt;&#45;4722432698065779465 -->
<g id="edge28" class="edge">
<title>874469918790253491&#45;&gt;&#45;4722432698065779465</title>
<path fill="none" stroke="black" d="M1520.13,-166.05C1528.18,-166.05 1537.16,-166.05 1545.65,-166.05"/>
<polygon fill="black" stroke="black" points="1545.68,-169.55 1555.68,-166.05 1545.68,-162.55 1545.68,-169.55"/>
</g>
<!-- 808061029971909974 -->
<g id="node28" class="node">
<title>808061029971909974</title>
<polygon fill="none" stroke="black" points="1429.96,-91.05 1375.96,-91.05 1375.96,-55.05 1429.96,-55.05 1429.96,-91.05"/>
</g>
<!-- 808061029971909974&#45;&gt;&#45;4722432698065779465 -->
<g id="edge29" class="edge">
<title>808061029971909974&#45;&gt;&#45;4722432698065779465</title>
<path fill="none" stroke="black" d="M1430.26,-86.97C1462.2,-103.88 1515.95,-132.33 1549.52,-150.1"/>
<polygon fill="black" stroke="black" points="1547.95,-153.22 1558.42,-154.81 1551.22,-147.04 1547.95,-153.22"/>
</g>
<!-- &#45;3579929565949080541 -->
<g id="node29" class="node">
<title>&#45;3579929565949080541</title>
<ellipse fill="none" stroke="black" cx="1402.96" cy="-166.05" rx="25.2" ry="25.2"/>
<text text-anchor="middle" x="1402.96" y="-162.35" font-family="helvetica" font-size="14.00">add</text>
</g>
<!-- &#45;3579929565949080541&#45;&gt;874469918790253491 -->
<g id="edge30" class="edge">
<title>&#45;3579929565949080541&#45;&gt;874469918790253491</title>
<path fill="none" stroke="black" d="M1428.47,-166.05C1436.89,-166.05 1446.51,-166.05 1455.67,-166.05"/>
<polygon fill="black" stroke="black" points="1455.73,-169.55 1465.73,-166.05 1455.73,-162.55 1455.73,-169.55"/>
</g>
<!-- 6857709192316301368 -->
<g id="node30" class="node">
<title>6857709192316301368</title>
<polygon fill="none" stroke="black" points="1339.96,-202.05 1285.96,-202.05 1285.96,-166.05 1339.96,-166.05 1339.96,-202.05"/>
</g>
<!-- 6857709192316301368&#45;&gt;&#45;3579929565949080541 -->
<g id="edge31" class="edge">
<title>6857709192316301368&#45;&gt;&#45;3579929565949080541</title>
<path fill="none" stroke="black" d="M1340.36,-178.65C1349.04,-176.87 1358.82,-174.87 1367.98,-173"/>
<polygon fill="black" stroke="black" points="1368.88,-176.39 1377.97,-170.95 1367.47,-169.53 1368.88,-176.39"/>
</g>
<!-- &#45;4313777085618216882 -->
<g id="node31" class="node">
<title>&#45;4313777085618216882</title>
<polygon fill="#8888cc" stroke="black" points="1339.96,-141.05 1285.96,-141.05 1285.96,-105.05 1339.96,-105.05 1339.96,-141.05"/>
</g>
<!-- &#45;4313777085618216882&#45;&gt;&#45;3579929565949080541 -->
<g id="edge32" class="edge">
<title>&#45;4313777085618216882&#45;&gt;&#45;3579929565949080541</title>
<path fill="none" stroke="black" d="M1340.36,-135.95C1349.87,-140.6 1360.7,-145.89 1370.6,-150.72"/>
<polygon fill="black" stroke="black" points="1369.21,-153.94 1379.73,-155.19 1372.28,-147.65 1369.21,-153.94"/>
</g>
<!-- &#45;848112470969801991&#45;&gt;6857709192316301368 -->
<g id="edge33" class="edge">
<title>&#45;848112470969801991&#45;&gt;6857709192316301368</title>
<path fill="none" stroke="black" d="M1249.86,-192.28C1258.33,-191.16 1267.36,-189.96 1275.84,-188.84"/>
<polygon fill="black" stroke="black" points="1276.38,-192.29 1285.83,-187.51 1275.46,-185.36 1276.38,-192.29"/>
</g>
<!-- &#45;1302608143557505979 -->
<g id="node34" class="node">
<title>&#45;1302608143557505979</title>
<polygon fill="none" stroke="black" points="1139.86,-58.05 1085.86,-58.05 1085.86,-22.05 1139.86,-22.05 1139.86,-58.05"/>
</g>
<!-- &#45;3847098365001006512&#45;&gt;&#45;1302608143557505979 -->
<g id="edge35" class="edge">
<title>&#45;3847098365001006512&#45;&gt;&#45;1302608143557505979</title>
<path fill="none" stroke="black" d="M874.73,-40.05C927.06,-40.05 1023.12,-40.05 1075.48,-40.05"/>
<polygon fill="black" stroke="black" points="1075.65,-43.55 1085.65,-40.05 1075.65,-36.55 1075.65,-43.55"/>
</g>
<!-- 8668358932028368203 -->
<g id="node35" class="node">
<title>8668358932028368203</title>
<ellipse fill="none" stroke="black" cx="1212.91" cy="-117.05" rx="24.9" ry="24.9"/>
<text text-anchor="middle" x="1212.91" y="-113.35" font-family="helvetica" font-size="14.00">fine</text>
</g>
<!-- &#45;1302608143557505979&#45;&gt;8668358932028368203 -->
<g id="edge38" class="edge">
<title>&#45;1302608143557505979&#45;&gt;8668358932028368203</title>
<path fill="none" stroke="black" d="M1137.1,-58.29C1151.53,-69.63 1170.12,-84.23 1185.17,-96.04"/>
<polygon fill="black" stroke="black" points="1183.08,-98.86 1193.11,-102.28 1187.41,-93.35 1183.08,-98.86"/>
</g>
<!-- 6724491161480589956 -->
<g id="node36" class="node">
<title>6724491161480589956</title>
<ellipse fill="none" stroke="black" cx="1212.91" cy="-37.05" rx="37.09" ry="37.09"/>
<text text-anchor="middle" x="1212.91" y="-33.35" font-family="helvetica" font-size="14.00">coarse</text>
</g>
<!-- &#45;1302608143557505979&#45;&gt;6724491161480589956 -->
<g id="edge40" class="edge">
<title>&#45;1302608143557505979&#45;&gt;6724491161480589956</title>
<path fill="none" stroke="black" d="M1139.88,-39.25C1147.79,-39.01 1156.73,-38.73 1165.56,-38.46"/>
<polygon fill="black" stroke="black" points="1165.92,-41.96 1175.8,-38.15 1165.7,-34.96 1165.92,-41.96"/>
</g>
<!-- 8668358932028368203&#45;&gt;&#45;4313777085618216882 -->
<g id="edge37" class="edge">
<title>8668358932028368203&#45;&gt;&#45;4313777085618216882</title>
<path fill="none" stroke="black" d="M1237.64,-118.5C1248.98,-119.19 1262.8,-120.04 1275.43,-120.81"/>
<polygon fill="black" stroke="black" points="1275.49,-124.32 1285.68,-121.44 1275.91,-117.33 1275.49,-124.32"/>
</g>
<!-- 6724491161480589956&#45;&gt;808061029971909974 -->
<g id="edge39" class="edge">
<title>6724491161480589956&#45;&gt;808061029971909974</title>
<path fill="none" stroke="black" d="M1249.72,-43.9C1282.99,-50.27 1332.29,-59.71 1365.7,-66.11"/>
<polygon fill="black" stroke="black" points="1365.47,-69.63 1375.95,-68.07 1366.79,-62.75 1365.47,-69.63"/>
</g>
</g>
</svg>
